# Blender 3.6.1
# www.blender.org
mtllib MuroSegreto.mtl
o MuroArmadioGrievole
v -1.555555 0.100000 -0.099999
v 1.555555 0.100000 -0.100001
v -1.555555 0.100000 0.100001
v 1.555555 0.100000 0.099999
v -1.555555 3.566667 0.100001
v 1.555555 3.566667 0.099999
v -1.555555 3.566667 -0.099999
v 1.555555 3.566667 -0.100000
v -1.555555 0.100000 0.000001
v 1.555555 0.100000 -0.000001
v 1.555555 3.566667 -0.000001
v -1.555555 3.566667 0.000001
vn 1.0000 -0.0000 -0.0000
vn -0.0000 1.0000 -0.0000
vn -1.0000 -0.0000 -0.0000
vn -0.0000 -1.0000 -0.0000
vn -0.0000 -0.0000 1.0000
vn -0.0000 -0.0000 -1.0000
vt 0.500000 0.000000
vt 0.500000 1.000000
vt 0.471154 1.000000
vt 0.471154 0.000000
vt 0.500000 0.948718
vt 0.471154 0.948718
vt 0.471154 0.051282
vt 0.500000 0.051282
vt 0.500000 0.000000
vt 0.500000 1.000000
vt 0.528846 1.000000
vt 0.528846 0.000000
vt 0.471154 0.000000
vt 0.471154 1.000000
vt 0.528846 0.948718
vt 0.528846 0.051282
vt 0.528846 0.000000
vt 0.528846 1.000000
vt 0.471154 0.948718
vt 0.500000 0.051282
vt 0.471154 0.051282
vt 0.528846 0.051282
vt 0.888889 0.888889
vt 0.888889 0.000000
vt 0.111111 0.000000
vt 0.111111 0.888889
s 0
usemtl murobricks.001
f 9/9/3 12/10/3 7/11/3 1/12/3
f 7/15/2 12/5/2 11/8/2 8/16/2
f 2/17/1 8/18/1 11/2/1 10/1/1
f 9/5/4 1/15/4 2/22/4 10/20/4
f 1/24/6 7/23/6 8/26/6 2/25/6
usemtl MatPareti.001
f 10/1/1 11/2/1 6/3/1 4/4/1
f 12/5/2 5/6/2 6/7/2 11/8/2
f 3/13/3 5/14/3 12/10/3 9/9/3
f 3/19/4 9/5/4 10/20/4 4/21/4
f 5/23/5 3/24/5 4/25/5 6/26/5
